<?xml version="1.0" encoding="UTF-8" standalone="no"?>
<!DOCTYPE svg PUBLIC "-//W3C//DTD SVG 1.1//EN"
 "http://www.w3.org/Graphics/SVG/1.1/DTD/svg11.dtd">
<!-- Generated by graphviz version 2.47.3 (20210619.1520)
 -->
<!-- Title: dependencies Pages: 1 -->
<svg width="439pt" height="247pt"
 viewBox="0.00 0.00 439.00 246.80" xmlns="http://www.w3.org/2000/svg" xmlns:xlink="http://www.w3.org/1999/xlink">
<g id="graph0" class="graph" transform="scale(1 1) rotate(0) translate(4 242.8)">
<title>dependencies</title>
<polygon fill="white" stroke="transparent" points="-4,4 -4,-242.8 435,-242.8 435,4 -4,4"/>
<text text-anchor="middle" x="215.5" y="-8.2" font-family="sans-serif" font-size="14.00">dependencies</text>
<g id="clust1" class="cluster">
<title>cluster_AuthModule</title>
<polygon fill="none" stroke="black" stroke-dasharray="1,5" points="8,-32.8 8,-230.8 423,-230.8 423,-32.8 8,-32.8"/>
</g>
<g id="clust4" class="cluster">
<title>cluster_AuthModule_exports</title>
<polygon fill="none" stroke="black" points="92,-170.8 92,-222.8 314,-222.8 314,-170.8 92,-170.8"/>
</g>
<g id="clust6" class="cluster">
<title>cluster_AuthModule_providers</title>
<polygon fill="none" stroke="black" points="132,-40.8 132,-92.8 415,-92.8 415,-40.8 132,-40.8"/>
</g>
<g id="clust3" class="cluster">
<title>cluster_AuthModule_imports</title>
<polygon fill="none" stroke="black" points="16,-40.8 16,-92.8 124,-92.8 124,-40.8 16,-40.8"/>
</g>
<!-- UsersModule -->
<g id="node1" class="node">
<title>UsersModule</title>
<polygon fill="#8dd3c7" stroke="black" points="115.92,-84.8 112.92,-88.8 91.92,-88.8 88.92,-84.8 24.08,-84.8 24.08,-48.8 115.92,-48.8 115.92,-84.8"/>
<text text-anchor="middle" x="70" y="-62.6" font-family="Times,serif" font-size="14.00">UsersModule</text>
</g>
<!-- AuthModule -->
<g id="node2" class="node">
<title>AuthModule</title>
<polygon fill="#8dd3c7" stroke="black" points="248.55,-149.8 245.55,-153.8 224.55,-153.8 221.55,-149.8 161.45,-149.8 161.45,-113.8 248.55,-113.8 248.55,-149.8"/>
<text text-anchor="middle" x="205" y="-127.6" font-family="Times,serif" font-size="14.00">AuthModule</text>
</g>
<!-- UsersModule&#45;&gt;AuthModule -->
<g id="edge1" class="edge">
<title>UsersModule&#45;&gt;AuthModule</title>
<path fill="none" stroke="black" d="M107.85,-84.91C107.85,-104.14 107.85,-131.8 107.85,-131.8 107.85,-131.8 151.26,-131.8 151.26,-131.8"/>
<polygon fill="black" stroke="black" points="151.26,-135.3 161.26,-131.8 151.26,-128.3 151.26,-135.3"/>
</g>
<!-- AuthService  -->
<g id="node3" class="node">
<title>AuthService </title>
<polygon fill="#fb8072" stroke="black" points="305.98,-214.8 216.02,-214.8 216.02,-178.8 305.98,-178.8 305.98,-214.8"/>
<text text-anchor="middle" x="261" y="-192.6" font-family="Times,serif" font-size="14.00">AuthService </text>
</g>
<!-- AuthModule&#45;&gt;AuthService  -->
<g id="edge2" class="edge">
<title>AuthModule&#45;&gt;AuthService </title>
<path fill="none" stroke="black" stroke-dasharray="5,2" d="M232.52,-149.91C232.52,-149.91 232.52,-168.79 232.52,-168.79"/>
<polygon fill="black" stroke="black" points="229.02,-168.79 232.52,-178.79 236.02,-168.79 229.02,-168.79"/>
</g>
<!-- LocalStrategy  -->
<g id="node4" class="node">
<title>LocalStrategy </title>
<polygon fill="#fb8072" stroke="black" points="198.03,-214.8 99.97,-214.8 99.97,-178.8 198.03,-178.8 198.03,-214.8"/>
<text text-anchor="middle" x="149" y="-192.6" font-family="Times,serif" font-size="14.00">LocalStrategy </text>
</g>
<!-- AuthModule&#45;&gt;LocalStrategy  -->
<g id="edge3" class="edge">
<title>AuthModule&#45;&gt;LocalStrategy </title>
<path fill="none" stroke="black" stroke-dasharray="5,2" d="M179.62,-149.91C179.62,-149.91 179.62,-168.79 179.62,-168.79"/>
<polygon fill="black" stroke="black" points="176.12,-168.79 179.62,-178.79 183.12,-168.79 176.12,-168.79"/>
</g>
<!-- AuthService -->
<g id="node5" class="node">
<title>AuthService</title>
<ellipse fill="#fdb462" stroke="black" cx="348" cy="-66.8" rx="59.11" ry="18"/>
<text text-anchor="middle" x="348" y="-62.6" font-family="Times,serif" font-size="14.00">AuthService</text>
</g>
<!-- AuthService&#45;&gt;AuthModule -->
<g id="edge4" class="edge">
<title>AuthService&#45;&gt;AuthModule</title>
<path fill="none" stroke="black" d="M297.22,-76.11C297.22,-94.09 297.22,-131.8 297.22,-131.8 297.22,-131.8 258.68,-131.8 258.68,-131.8"/>
<polygon fill="black" stroke="black" points="258.68,-128.3 248.68,-131.8 258.68,-135.3 258.68,-128.3"/>
</g>
<!-- LocalStrategy -->
<g id="node6" class="node">
<title>LocalStrategy</title>
<ellipse fill="#fdb462" stroke="black" cx="205" cy="-66.8" rx="65.41" ry="18"/>
<text text-anchor="middle" x="205" y="-62.6" font-family="Times,serif" font-size="14.00">LocalStrategy</text>
</g>
<!-- LocalStrategy&#45;&gt;AuthModule -->
<g id="edge5" class="edge">
<title>LocalStrategy&#45;&gt;AuthModule</title>
<path fill="none" stroke="black" d="M205,-84.91C205,-84.91 205,-103.79 205,-103.79"/>
<polygon fill="black" stroke="black" points="201.5,-103.79 205,-113.79 208.5,-103.79 201.5,-103.79"/>
</g>
</g>
</svg>
