<?xml version="1.0" encoding="UTF-8" standalone="no"?>
<!DOCTYPE svg PUBLIC "-//W3C//DTD SVG 1.1//EN"
 "http://www.w3.org/Graphics/SVG/1.1/DTD/svg11.dtd">
<!-- Generated by graphviz version 2.47.3 (20210619.1520)
 -->
<!-- Title: dependencies Pages: 1 -->
<svg width="316pt" height="247pt"
 viewBox="0.00 0.00 316.00 246.80" xmlns="http://www.w3.org/2000/svg" xmlns:xlink="http://www.w3.org/1999/xlink">
<g id="graph0" class="graph" transform="scale(1 1) rotate(0) translate(4 242.8)">
<title>dependencies</title>
<polygon fill="white" stroke="transparent" points="-4,4 -4,-242.8 312,-242.8 312,4 -4,4"/>
<text text-anchor="middle" x="154" y="-8.2" font-family="sans-serif" font-size="14.00">dependencies</text>
<g id="clust1" class="cluster">
<title>cluster_ProductsModule</title>
<polygon fill="none" stroke="black" stroke-dasharray="1,5" points="8,-32.8 8,-230.8 300,-230.8 300,-32.8 8,-32.8"/>
</g>
<g id="clust3" class="cluster">
<title>cluster_ProductsModule_imports</title>
<polygon fill="none" stroke="black" points="188,-40.8 188,-92.8 292,-92.8 292,-40.8 188,-40.8"/>
</g>
<g id="clust6" class="cluster">
<title>cluster_ProductsModule_providers</title>
<polygon fill="none" stroke="black" points="16,-40.8 16,-92.8 180,-92.8 180,-40.8 16,-40.8"/>
</g>
<g id="clust4" class="cluster">
<title>cluster_ProductsModule_exports</title>
<polygon fill="none" stroke="black" points="100,-170.8 100,-222.8 226,-222.8 226,-170.8 100,-170.8"/>
</g>
<!-- LogsModule -->
<g id="node1" class="node">
<title>LogsModule</title>
<polygon fill="#8dd3c7" stroke="black" points="283.55,-84.8 280.55,-88.8 259.55,-88.8 256.55,-84.8 196.45,-84.8 196.45,-48.8 283.55,-48.8 283.55,-84.8"/>
<text text-anchor="middle" x="240" y="-62.6" font-family="Times,serif" font-size="14.00">LogsModule</text>
</g>
<!-- ProductsModule -->
<g id="node2" class="node">
<title>ProductsModule</title>
<polygon fill="#8dd3c7" stroke="black" points="217.04,-149.8 214.04,-153.8 193.04,-153.8 190.04,-149.8 108.96,-149.8 108.96,-113.8 217.04,-113.8 217.04,-149.8"/>
<text text-anchor="middle" x="163" y="-127.6" font-family="Times,serif" font-size="14.00">ProductsModule</text>
</g>
<!-- LogsModule&#45;&gt;ProductsModule -->
<g id="edge1" class="edge">
<title>LogsModule&#45;&gt;ProductsModule</title>
<path fill="none" stroke="black" d="M206.75,-84.91C206.75,-84.91 206.75,-103.79 206.75,-103.79"/>
<polygon fill="black" stroke="black" points="203.25,-103.79 206.75,-113.79 210.25,-103.79 203.25,-103.79"/>
</g>
<!-- ProductsService  -->
<g id="node3" class="node">
<title>ProductsService </title>
<polygon fill="#fb8072" stroke="black" points="218.47,-214.8 107.53,-214.8 107.53,-178.8 218.47,-178.8 218.47,-214.8"/>
<text text-anchor="middle" x="163" y="-192.6" font-family="Times,serif" font-size="14.00">ProductsService </text>
</g>
<!-- ProductsModule&#45;&gt;ProductsService  -->
<g id="edge2" class="edge">
<title>ProductsModule&#45;&gt;ProductsService </title>
<path fill="none" stroke="black" stroke-dasharray="5,2" d="M163,-149.91C163,-149.91 163,-168.79 163,-168.79"/>
<polygon fill="black" stroke="black" points="159.5,-168.79 163,-178.79 166.5,-168.79 159.5,-168.79"/>
</g>
<!-- ProductsService -->
<g id="node4" class="node">
<title>ProductsService</title>
<ellipse fill="#fdb462" stroke="black" cx="98" cy="-66.8" rx="73.57" ry="18"/>
<text text-anchor="middle" x="98" y="-62.6" font-family="Times,serif" font-size="14.00">ProductsService</text>
</g>
<!-- ProductsService&#45;&gt;ProductsModule -->
<g id="edge3" class="edge">
<title>ProductsService&#45;&gt;ProductsModule</title>
<path fill="none" stroke="black" d="M140.26,-81.88C140.26,-81.88 140.26,-103.56 140.26,-103.56"/>
<polygon fill="black" stroke="black" points="136.76,-103.56 140.26,-113.56 143.76,-103.56 136.76,-103.56"/>
</g>
</g>
</svg>
