<?xml version="1.0" encoding="UTF-8" standalone="no"?>
<!DOCTYPE svg PUBLIC "-//W3C//DTD SVG 1.1//EN"
 "http://www.w3.org/Graphics/SVG/1.1/DTD/svg11.dtd">
<!-- Generated by graphviz version 2.47.3 (20210619.1520)
 -->
<!-- Title: dependencies Pages: 1 -->
<svg width="518pt" height="174pt"
 viewBox="0.00 0.00 518.00 173.80" xmlns="http://www.w3.org/2000/svg" xmlns:xlink="http://www.w3.org/1999/xlink">
<g id="graph0" class="graph" transform="scale(1 1) rotate(0) translate(4 169.8)">
<title>dependencies</title>
<polygon fill="white" stroke="transparent" points="-4,4 -4,-169.8 514,-169.8 514,4 -4,4"/>
<text text-anchor="middle" x="255" y="-8.2" font-family="sans-serif" font-size="14.00">dependencies</text>
<g id="clust1" class="cluster">
<title>cluster_CartModule</title>
<polygon fill="none" stroke="black" stroke-dasharray="1,5" points="8,-32.8 8,-157.8 502,-157.8 502,-32.8 8,-32.8"/>
</g>
<g id="clust3" class="cluster">
<title>cluster_CartModule_imports</title>
<polygon fill="none" stroke="black" points="154,-40.8 154,-92.8 494,-92.8 494,-40.8 154,-40.8"/>
</g>
<g id="clust6" class="cluster">
<title>cluster_CartModule_providers</title>
<polygon fill="none" stroke="black" points="16,-40.8 16,-92.8 146,-92.8 146,-40.8 16,-40.8"/>
</g>
<!-- LogsModule -->
<g id="node1" class="node">
<title>LogsModule</title>
<polygon fill="#8dd3c7" stroke="black" points="485.55,-84.8 482.55,-88.8 461.55,-88.8 458.55,-84.8 398.45,-84.8 398.45,-48.8 485.55,-48.8 485.55,-84.8"/>
<text text-anchor="middle" x="442" y="-62.6" font-family="Times,serif" font-size="14.00">LogsModule</text>
</g>
<!-- CartModule -->
<g id="node4" class="node">
<title>CartModule</title>
<polygon fill="#8dd3c7" stroke="black" points="308.65,-149.8 305.65,-153.8 284.65,-153.8 281.65,-149.8 225.35,-149.8 225.35,-113.8 308.65,-113.8 308.65,-149.8"/>
<text text-anchor="middle" x="267" y="-127.6" font-family="Times,serif" font-size="14.00">CartModule</text>
</g>
<!-- LogsModule&#45;&gt;CartModule -->
<g id="edge1" class="edge">
<title>LogsModule&#45;&gt;CartModule</title>
<path fill="none" stroke="black" d="M442,-84.91C442,-104.14 442,-131.8 442,-131.8 442,-131.8 318.92,-131.8 318.92,-131.8"/>
<polygon fill="black" stroke="black" points="318.92,-128.3 308.92,-131.8 318.92,-135.3 318.92,-128.3"/>
</g>
<!-- ProductsModule -->
<g id="node2" class="node">
<title>ProductsModule</title>
<polygon fill="#8dd3c7" stroke="black" points="380.04,-84.8 377.04,-88.8 356.04,-88.8 353.04,-84.8 271.96,-84.8 271.96,-48.8 380.04,-48.8 380.04,-84.8"/>
<text text-anchor="middle" x="326" y="-62.6" font-family="Times,serif" font-size="14.00">ProductsModule</text>
</g>
<!-- ProductsModule&#45;&gt;CartModule -->
<g id="edge2" class="edge">
<title>ProductsModule&#45;&gt;CartModule</title>
<path fill="none" stroke="black" d="M290.28,-84.91C290.28,-84.91 290.28,-103.79 290.28,-103.79"/>
<polygon fill="black" stroke="black" points="286.78,-103.79 290.28,-113.79 293.78,-103.79 286.78,-103.79"/>
</g>
<!-- UsersModule -->
<g id="node3" class="node">
<title>UsersModule</title>
<polygon fill="#8dd3c7" stroke="black" points="253.92,-84.8 250.92,-88.8 229.92,-88.8 226.92,-84.8 162.08,-84.8 162.08,-48.8 253.92,-48.8 253.92,-84.8"/>
<text text-anchor="middle" x="208" y="-62.6" font-family="Times,serif" font-size="14.00">UsersModule</text>
</g>
<!-- UsersModule&#45;&gt;CartModule -->
<g id="edge3" class="edge">
<title>UsersModule&#45;&gt;CartModule</title>
<path fill="none" stroke="black" d="M239.44,-84.91C239.44,-84.91 239.44,-103.79 239.44,-103.79"/>
<polygon fill="black" stroke="black" points="235.94,-103.79 239.44,-113.79 242.94,-103.79 235.94,-103.79"/>
</g>
<!-- CartService -->
<g id="node5" class="node">
<title>CartService</title>
<ellipse fill="#fdb462" stroke="black" cx="81" cy="-66.8" rx="56.73" ry="18"/>
<text text-anchor="middle" x="81" y="-62.6" font-family="Times,serif" font-size="14.00">CartService</text>
</g>
<!-- CartService&#45;&gt;CartModule -->
<g id="edge4" class="edge">
<title>CartService&#45;&gt;CartModule</title>
<path fill="none" stroke="black" d="M81,-84.91C81,-104.14 81,-131.8 81,-131.8 81,-131.8 215.26,-131.8 215.26,-131.8"/>
<polygon fill="black" stroke="black" points="215.26,-135.3 225.26,-131.8 215.26,-128.3 215.26,-135.3"/>
</g>
</g>
</svg>
