<?xml version="1.0" encoding="UTF-8" standalone="no"?>
<!DOCTYPE svg PUBLIC "-//W3C//DTD SVG 1.1//EN"
 "http://www.w3.org/Graphics/SVG/1.1/DTD/svg11.dtd">
<!-- Generated by graphviz version 2.47.3 (20210619.1520)
 -->
<!-- Title: dependencies Pages: 1 -->
<svg width="836pt" height="174pt"
 viewBox="0.00 0.00 836.00 173.80" xmlns="http://www.w3.org/2000/svg" xmlns:xlink="http://www.w3.org/1999/xlink">
<g id="graph0" class="graph" transform="scale(1 1) rotate(0) translate(4 169.8)">
<title>dependencies</title>
<polygon fill="white" stroke="transparent" points="-4,4 -4,-169.8 832,-169.8 832,4 -4,4"/>
<text text-anchor="middle" x="414" y="-8.2" font-family="sans-serif" font-size="14.00">dependencies</text>
<g id="clust1" class="cluster">
<title>cluster_AppModule</title>
<polygon fill="none" stroke="black" stroke-dasharray="1,5" points="8,-32.8 8,-157.8 820,-157.8 820,-32.8 8,-32.8"/>
</g>
<g id="clust6" class="cluster">
<title>cluster_AppModule_providers</title>
<polygon fill="none" stroke="black" points="682,-40.8 682,-92.8 812,-92.8 812,-40.8 682,-40.8"/>
</g>
<g id="clust3" class="cluster">
<title>cluster_AppModule_imports</title>
<polygon fill="none" stroke="black" points="16,-40.8 16,-92.8 674,-92.8 674,-40.8 16,-40.8"/>
</g>
<!-- AuthModule -->
<g id="node1" class="node">
<title>AuthModule</title>
<polygon fill="#8dd3c7" stroke="black" points="665.55,-84.8 662.55,-88.8 641.55,-88.8 638.55,-84.8 578.45,-84.8 578.45,-48.8 665.55,-48.8 665.55,-84.8"/>
<text text-anchor="middle" x="622" y="-62.6" font-family="Times,serif" font-size="14.00">AuthModule</text>
</g>
<!-- AppModule -->
<g id="node7" class="node">
<title>AppModule</title>
<polygon fill="#8dd3c7" stroke="black" points="453.66,-149.8 450.66,-153.8 429.66,-153.8 426.66,-149.8 370.34,-149.8 370.34,-113.8 453.66,-113.8 453.66,-149.8"/>
<text text-anchor="middle" x="412" y="-127.6" font-family="Times,serif" font-size="14.00">AppModule</text>
</g>
<!-- AuthModule&#45;&gt;AppModule -->
<g id="edge1" class="edge">
<title>AuthModule&#45;&gt;AppModule</title>
<path fill="none" stroke="black" d="M622,-84.91C622,-104.14 622,-131.8 622,-131.8 622,-131.8 463.74,-131.8 463.74,-131.8"/>
<polygon fill="black" stroke="black" points="463.74,-128.3 453.74,-131.8 463.74,-135.3 463.74,-128.3"/>
</g>
<!-- CartModule -->
<g id="node2" class="node">
<title>CartModule</title>
<polygon fill="#8dd3c7" stroke="black" points="559.65,-84.8 556.65,-88.8 535.65,-88.8 532.65,-84.8 476.35,-84.8 476.35,-48.8 559.65,-48.8 559.65,-84.8"/>
<text text-anchor="middle" x="518" y="-62.6" font-family="Times,serif" font-size="14.00">CartModule</text>
</g>
<!-- CartModule&#45;&gt;AppModule -->
<g id="edge2" class="edge">
<title>CartModule&#45;&gt;AppModule</title>
<path fill="none" stroke="black" d="M518,-84.83C518,-101.2 518,-122.8 518,-122.8 518,-122.8 463.89,-122.8 463.89,-122.8"/>
<polygon fill="black" stroke="black" points="463.89,-119.3 453.89,-122.8 463.89,-126.3 463.89,-119.3"/>
</g>
<!-- LoginModule -->
<g id="node3" class="node">
<title>LoginModule</title>
<polygon fill="#8dd3c7" stroke="black" points="458.49,-84.8 455.49,-88.8 434.49,-88.8 431.49,-84.8 365.51,-84.8 365.51,-48.8 458.49,-48.8 458.49,-84.8"/>
<text text-anchor="middle" x="412" y="-62.6" font-family="Times,serif" font-size="14.00">LoginModule</text>
</g>
<!-- LoginModule&#45;&gt;AppModule -->
<g id="edge3" class="edge">
<title>LoginModule&#45;&gt;AppModule</title>
<path fill="none" stroke="black" d="M412,-84.91C412,-84.91 412,-103.79 412,-103.79"/>
<polygon fill="black" stroke="black" points="408.5,-103.79 412,-113.79 415.5,-103.79 408.5,-103.79"/>
</g>
<!-- LogsModule -->
<g id="node4" class="node">
<title>LogsModule</title>
<polygon fill="#8dd3c7" stroke="black" points="347.55,-84.8 344.55,-88.8 323.55,-88.8 320.55,-84.8 260.45,-84.8 260.45,-48.8 347.55,-48.8 347.55,-84.8"/>
<text text-anchor="middle" x="304" y="-62.6" font-family="Times,serif" font-size="14.00">LogsModule</text>
</g>
<!-- LogsModule&#45;&gt;AppModule -->
<g id="edge4" class="edge">
<title>LogsModule&#45;&gt;AppModule</title>
<path fill="none" stroke="black" d="M304,-84.83C304,-101.2 304,-122.8 304,-122.8 304,-122.8 360.24,-122.8 360.24,-122.8"/>
<polygon fill="black" stroke="black" points="360.24,-126.3 370.24,-122.8 360.24,-119.3 360.24,-126.3"/>
</g>
<!-- ProductsModule -->
<g id="node5" class="node">
<title>ProductsModule</title>
<polygon fill="#8dd3c7" stroke="black" points="242.04,-84.8 239.04,-88.8 218.04,-88.8 215.04,-84.8 133.96,-84.8 133.96,-48.8 242.04,-48.8 242.04,-84.8"/>
<text text-anchor="middle" x="188" y="-62.6" font-family="Times,serif" font-size="14.00">ProductsModule</text>
</g>
<!-- ProductsModule&#45;&gt;AppModule -->
<g id="edge5" class="edge">
<title>ProductsModule&#45;&gt;AppModule</title>
<path fill="none" stroke="black" d="M188,-84.91C188,-104.14 188,-131.8 188,-131.8 188,-131.8 360.13,-131.8 360.13,-131.8"/>
<polygon fill="black" stroke="black" points="360.13,-135.3 370.13,-131.8 360.13,-128.3 360.13,-135.3"/>
</g>
<!-- UsersModule -->
<g id="node6" class="node">
<title>UsersModule</title>
<polygon fill="#8dd3c7" stroke="black" points="115.92,-84.8 112.92,-88.8 91.92,-88.8 88.92,-84.8 24.08,-84.8 24.08,-48.8 115.92,-48.8 115.92,-84.8"/>
<text text-anchor="middle" x="70" y="-62.6" font-family="Times,serif" font-size="14.00">UsersModule</text>
</g>
<!-- UsersModule&#45;&gt;AppModule -->
<g id="edge6" class="edge">
<title>UsersModule&#45;&gt;AppModule</title>
<path fill="none" stroke="black" d="M70,-85.09C70,-107.01 70,-140.8 70,-140.8 70,-140.8 360.06,-140.8 360.06,-140.8"/>
<polygon fill="black" stroke="black" points="360.06,-144.3 370.06,-140.8 360.06,-137.3 360.06,-144.3"/>
</g>
<!-- AppService -->
<g id="node8" class="node">
<title>AppService</title>
<ellipse fill="#fdb462" stroke="black" cx="747" cy="-66.8" rx="56.74" ry="18"/>
<text text-anchor="middle" x="747" y="-62.6" font-family="Times,serif" font-size="14.00">AppService</text>
</g>
<!-- AppService&#45;&gt;AppModule -->
<g id="edge7" class="edge">
<title>AppService&#45;&gt;AppModule</title>
<path fill="none" stroke="black" d="M747,-85.09C747,-107.01 747,-140.8 747,-140.8 747,-140.8 463.75,-140.8 463.75,-140.8"/>
<polygon fill="black" stroke="black" points="463.75,-137.3 453.75,-140.8 463.75,-144.3 463.75,-137.3"/>
</g>
</g>
</svg>
